Coordinates
version=1
nRows=6
nColumns=34
inDegrees=yes

Units are S.I. units (second, meters, Newtons, ...)
If the header above contains a line with 'inDegrees', this indicates whether rotational values are in degrees (yes) or radians (no).

endheader
time	pelvis_tilt	pelvis_list	pelvis_rotation	pelvis_tx	pelvis_ty	pelvis_tz	hip_flexion_r	hip_adduction_r	hip_rotation_r	knee_angle_r	ankle_angle_r	subtalar_angle_r	mtp_angle_r	hip_flexion_l	hip_adduction_l	hip_rotation_l	knee_angle_l	ankle_angle_l	subtalar_angle_l	mtp_angle_l	lumbar_extension	lumbar_bending	lumbar_rotation	arm_flex_r	arm_add_r	arm_rot_r	elbow_flex_r	pro_sup_r	arm_flex_l	arm_add_l	arm_rot_l	elbow_flex_l	pro_sup_l
      6.35000000	      8.94858734	     -1.78889901	      1.41693522	      0.18248679	      0.80196673	     -0.26982401	     31.23717360	     -6.73723386	      0.70808446	      6.75236831	    -20.24653023	     -9.16790401	      0.00000000	     13.12210026	      8.85509727	      4.80235301	     57.24666532	     23.88192888	    -18.84678397	      0.00000000	    -24.42558869	      4.90330451	     -1.08013801	     45.12711595	     13.08879978	     64.12487620	    128.61836462	    101.49326963	     55.84223582	     14.11625888	     69.21931708	    129.71962081	     69.95942296
      6.36666670	      9.19294677	     -1.49439535	      1.50425124	      0.18030444	      0.79824986	     -0.26980757	     31.26085356	     -7.30966153	      0.08405698	      6.08932361	    -20.76642194	     -8.83284101	      0.00000000	     13.33755422	      9.11297397	      4.64957828	     58.27092086	     25.43825188	    -16.53542412	      0.00000000	    -25.31213984	      4.46975826	     -1.41139724	     45.45544247	     13.18703808	     64.91016141	    129.07933350	    101.77154833	     56.13705450	     13.93410400	     69.38324517	    129.87948420	     70.26801103
      6.38333330	      9.59428154	     -1.36022303	      1.36102319	      0.18161432	      0.79434350	     -0.26919600	     31.04924797	     -7.50753442	      0.01552711	      5.63793304	    -22.25037810	     -8.66786794	      0.00000000	     12.99075284	      9.14775267	      4.56204882	     59.25761565	     27.12374299	    -14.50204112	      0.00000000	    -26.17041484	      4.17534921	     -1.49268073	     45.61225198	     13.14717762	     64.71547394	    128.84347646	    101.96878178	     56.26074563	     13.76885916	     68.99462608	    129.73527496	     70.52042533
      6.40000000	      9.88153530	     -1.21070413	      0.94320628	      0.18326817	      0.79020861	     -0.26919910	     31.10203596	     -7.56814054	      0.20677557	      5.50048611	    -22.16068598	     -8.15462763	      0.00000000	     13.65322503	      9.20931180	      3.84778781	     61.02741807	     28.70696497	    -12.97809244	      0.00000000	    -26.93221963	      3.74224801	     -1.48249330	     45.82883406	     13.01783845	     64.53553999	    128.51286932	    102.13769288	     56.25838753	     13.61257025	     68.80973139	    129.66352673	     70.77683685
      6.41666670	     10.12588552	     -1.26616888	      0.52172814	      0.18206517	      0.78370293	     -0.26903025	     31.36567638	     -7.45248392	     -0.23450892	      5.55719611	    -22.11227445	     -8.44154442	      0.00000000	     14.55283077	      8.93765987	      2.86491751	     63.20331245	     28.79066554	    -13.41135854	      0.00000000	    -27.67284366	      3.58507969	     -1.54325442	     46.17855575	     13.06387791	     64.37266190	    128.30997943	    102.18262859	     56.32780967	     13.50014612	     68.67689300	    129.64597458	     70.85809123
      6.43333330	     10.14328262	     -1.40257484	      0.12052265	      0.18184832	      0.77964778	     -0.26845576	     31.74005754	     -7.26127798	     -0.91332743	      5.53782862	    -23.08294308	     -8.53566357	      0.00000000	     14.93116134	      8.57591028	      2.01914141	     64.82520540	     28.65885664	    -13.45721245	      0.00000000	    -28.12695239	      3.35416153	     -1.68198730	     46.36261556	     13.02384431	     64.26824964	    128.19370469	    102.21927192	     56.29134865	     13.41164878	     68.49824744	    129.65647474	     70.92653825
